<svg xmlns="http://www.w3.org/2000/svg" viewBox="0 0 240 28" fill="none">
  <path d="M8 14h74" stroke="#2d2318" stroke-opacity=".35" stroke-width="1"/>
  <path d="M158 14h74" stroke="#2d2318" stroke-opacity=".35" stroke-width="1"/>
  <path d="M120 4c2.2 3.2 5.4 5.2 8.8 6.2-3.4 1-6.6 3-8.8 6.2-2.2-3.2-5.4-5.2-8.8-6.2 3.4-1 6.6-3 8.8-6.2Z" fill="#c9a227" fill-opacity=".85"/>
  <circle cx="120" cy="14" r="2.2" fill="#2d2318" fill-opacity=".55"/>
  <path d="M98 14c4.5-3.5 9.2-5.2 14-5.2M142 14c-4.5-3.5-9.2-5.2-14-5.2M98 14c4.5 3.5 9.2 5.2 14 5.2M142 14c-4.5 3.5-9.2 5.2-14 5.2" stroke="#2d2318" stroke-opacity=".4" stroke-width=".9" stroke-linecap="round"/>
</svg>
