<svg width="160" height="160" viewBox="0 0 160 160" xmlns="http://www.w3.org/2000/svg">
  <defs>
    <linearGradient id="paisleyGrad" x1="0" y1="0" x2="1" y2="1">
      <stop offset="0" stop-color="#c9a227" stop-opacity="0.7" />
      <stop offset="1" stop-color="#e8d4d0" stop-opacity="0.4" />
    </linearGradient>
  </defs>
  <rect width="160" height="160" fill="none" />
  <path
    d="M40 40c0 20 18 30 32 34 10 3 18 8 18 18 0 10-8 18-20 18-16 0-30-14-30-34 0-18 12-32 30-36-18 0-30 12-30 30z"
    fill="url(#paisleyGrad)"
    stroke="#c9a227"
    stroke-opacity="0.45"
    stroke-width="1.2"
  />
  <circle cx="70" cy="74" r="6" fill="#2d2318" fill-opacity="0.22" />
  <path
    d="M118 22c-6 8-16 12-26 12 10 4 18 10 22 18 4-8 10-14 18-18-8 0-14-4-14-12z"
    fill="#cce0eb"
    fill-opacity="0.35"
  />
  <path
    d="M22 118c10 0 20 6 26 14 6-8 16-14 26-14-10-4-18-10-22-18-4 8-10 14-18 18z"
    fill="#e8d4d0"
    fill-opacity="0.45"
  />
</svg>

